<svg width="344" height="96" viewBox="0 0 344 96" fill="none" xmlns="http://www.w3.org/2000/svg">
<g clip-path="url(#clip0_1_2)">
<path d="M3.72648 33.682C41.5762 36.5049 79.4694 37.5534 117.436 37.1194C119.388 37.0664 119.088 34.1473 117.129 34.1273C79.393 34.6114 41.6862 33.9125 4.01595 32.1036C2.95819 32.0648 2.66121 33.5702 3.72648 33.682Z" fill="black"/>
<path d="M3.72648 33.682C41.5762 36.5049 79.4694 37.5534 117.436 37.1194C119.388 37.0664 119.088 34.1473 117.129 34.1273C79.393 34.6114 41.6862 33.9125 4.01595 32.1036C2.95819 32.0648 2.66121 33.5702 3.72648 33.682Z" fill="black"/>
<path d="M106.399 29.3297C108.53 30.2908 110.661 31.2518 112.8 32.2859C114.849 33.1816 117.792 33.9855 119.446 35.438C119.252 35.0154 119.14 34.6582 118.946 34.2356C117.883 37.8109 113.483 41.1391 110.952 43.6115C109.858 44.6826 111.528 46.2811 112.719 45.4212C116.159 43.0029 120.454 38.6531 121.546 34.6323C121.65 34.1791 121.449 33.6835 121.046 33.4299C119.399 32.0504 116.933 31.4925 114.892 30.6697C112.306 29.6816 109.721 28.6935 107.128 27.6324C106.107 27.221 105.363 28.7724 106.399 29.3297Z" fill="black"/>
<path d="M3.85958 32.0458C3.13022 33.0057 2.5948 34.3881 3.3851 35.4869C4.08593 36.4474 5.61309 36.6592 6.42443 35.7646C7.97264 33.9832 6.38406 30.9752 4.11205 30.8399C1.6091 30.6545 0.575755 33.7843 2.0294 35.4787C3.662 37.4496 6.91632 36.1566 7.35428 33.8254C7.84423 31.2677 4.84843 29.2155 2.54741 30.2631C0.46234 31.2148 -0.437034 34.1833 1.24006 35.8547C2.75319 37.3955 5.59858 37.2507 6.84135 35.4268C8.15111 33.5223 6.80847 30.7104 4.57347 30.2025C1.80958 29.6752 -0.489993 32.9351 0.874655 35.2285C1.51599 36.3426 2.70072 36.8846 3.97444 36.8275C5.25566 36.8434 6.69287 36.1796 6.85586 34.8354C6.98935 33.9367 6.03557 33.4447 5.25373 33.8937C4.68785 34.2468 3.70505 34.9378 3.02671 34.1962C2.57932 33.5047 3.2862 32.3259 4.05353 32.4683C4.75387 32.6914 5.23874 33.7478 4.62086 34.3275C4.13696 34.7459 2.99721 34.6418 2.77327 33.9273C2.45986 33.0745 3.3232 31.9534 4.26948 32.3724C4.66439 32.5531 5.08929 33.0256 4.9853 33.4788C4.86632 33.786 4.4494 34.1238 4.06949 34.0891C3.61509 34.0621 3.43565 33.048 4.03152 32.9868C4.5604 33.0062 4.55339 33.6707 4.73235 33.9473C4.73984 34.0203 4.74734 34.0932 4.68035 34.1739C4.98578 34.2162 5.05277 34.1356 5.03028 33.9167C5.15676 33.6824 5.24575 33.0833 5.37223 32.8491C5.66969 32.0811 4.52196 31.1665 3.85958 32.0458Z" fill="black"/>
</g>
<path d="M191.743 17H202.543L189.523 59H180.163L173.083 33.86L166.003 59H156.583L143.623 17H154.363L161.623 44.6L169.423 17H176.743L184.483 44.6L191.743 17ZM216.786 27.86C225.786 27.86 233.706 33.98 232.506 46.76H210.546C211.566 50.3 214.446 51.92 218.166 51.92C221.286 51.92 223.446 50.42 224.406 49.28L231.246 53.36C228.786 57.14 224.106 59.78 218.166 59.78C207.906 59.78 201.066 53.3 201.066 43.82C201.066 34.82 208.086 27.86 216.786 27.86ZM210.546 40.88H223.686C222.966 37.34 220.446 35.72 217.086 35.72C214.026 35.72 211.446 37.52 210.546 40.88ZM250.995 27.86C260.715 27.86 264.135 32.84 264.135 40.1V59H254.415V56.18C252.795 58.52 249.195 59.78 246.075 59.78C241.995 59.78 235.695 58.22 235.695 50.84C235.695 40.76 248.775 40.76 250.815 40.76C252.195 40.76 253.755 40.76 254.415 40.76V40.64C254.415 37.76 252.975 35.72 249.435 35.72C246.975 35.72 244.875 36.68 243.675 37.64L237.315 33.32C240.615 29.84 245.175 27.86 250.995 27.86ZM254.415 50.48V45.62C254.175 45.62 253.875 45.62 253.635 45.62C248.775 45.62 245.535 46.52 245.535 49.58C245.535 51.8 247.335 52.64 249.435 52.64C251.535 52.64 253.575 51.62 254.415 50.48ZM270.717 17H280.497V59H270.717V17ZM304.838 36.62H298.838V46.22C298.838 49.4 299.978 51.02 302.978 51.02C303.758 51.02 304.358 50.9 304.838 50.84V59C303.818 59.36 302.558 59.54 300.638 59.54C291.278 59.54 289.118 53.18 289.118 47.24V36.62H285.338V28.58H289.118V22.22H298.838V28.58H304.838V36.62ZM329.207 27.86C336.827 27.86 340.367 33.86 340.367 39.98V59H330.587V42.62C330.587 39.14 328.427 37.4 325.727 37.4C322.907 37.4 320.867 39.26 320.867 42.62V59H311.147V17H320.867V31.4C322.607 29.42 325.247 27.86 329.207 27.86Z" fill="#27B373"/>
<path d="M340.309 65.0263C280.168 64.4932 219.85 65.7484 159.324 68.4998C156.211 68.6721 156.511 71.5912 159.631 71.4919C219.792 68.7042 279.835 67.1086 339.751 66.6322C341.434 66.6068 341.999 65.0738 340.309 65.0263Z" fill="#27B373"/>
<path d="M325.182 69.1776C265.054 70.5506 204.806 73.7166 144.398 78.3846C141.292 78.6554 141.684 81.5636 144.8 81.3654C204.842 76.6727 264.804 73.1753 324.675 70.8004C326.357 70.7217 326.873 69.1716 325.182 69.1776Z" fill="#27B373"/>
<defs>
<clipPath id="clip0_1_2">
<rect width="120.55" height="26.7036" fill="white" transform="translate(0 30.3775) rotate(-5.86517)"/>
</clipPath>
</defs>
</svg>
